<?xml version="1.0" standalone="no"?>
<!DOCTYPE svg PUBLIC "-//W3C//DTD SVG 1.0//EN" "http://www.w3.org/TR/2001/REC-SVG-20010904/DTD/svg10.dtd">
<svg xmlns="http://www.w3.org/2000/svg" xmlns:xlink="http://www.w3.org/1999/xlink" id="body_1" width="1024" height="768">

<defs>
    <linearGradient transform="matrix(1 0 0 1 0 0)"  id="1" x1="68.13" y1="113.39" x2="258.17" y2="113.39">
        <stop stop-color="#FFFFFF" offset="0%"/>
        <stop stop-color="#FFFFFF" offset="100%"/>
    </linearGradient>
                <clipPath  id="1">

                    <path clip-rule="evenodd" d="M180.87 123.93C 180.87 116.88837 189.39897 111.18 199.92 111.18C 210.44102 111.18 218.97 116.88837 218.97 123.93C 218.97 130.97163 210.44102 136.68 199.92 136.68C 189.39897 136.68 180.87 130.97163 180.87 123.93" />                </clipPath>
                <clipPath  id="2">

                    <path clip-rule="evenodd" d="M158.65 175.85C 158.65 168.65373 167.367 162.82 178.12 162.82C 188.87299 162.82 197.59 168.65373 197.59 175.85C 197.59 183.04628 188.87299 188.88 178.12 188.88C 167.367 188.88 158.65 183.04628 158.65 175.85" />                </clipPath>
</defs>

<g transform="matrix(2.8560805 0 0 2.8560805 143.32285 -0)">
	<g>
		<g>
            <path d="M50.45 112.29C 58.89 75.229996 97.45 52.99 133.61 64.62L133.61 64.62L135.8 65.350006C 183.1 81.61001 167.58 129.65001 191.23001 144.44C 214.88002 159.23 231.88 180.65 221.54001 208.73001C 211.20001 236.81003 148.37001 263.43002 98.850006 233.12001C 59.93 209.3 39.73 159.45 50.45 112.29z" stroke="#BFD9FF" stroke-width="1.11" fill="none" />
            <path transform="matrix(0.15798564 -0.9874414 0.9874414 0.15798564 -36.42 84.31)"  d="M61.9 63.51C 61.900005 71.97929 58.90566 79.208275 52.91696 85.19696C 46.928276 91.18565 39.699287 94.18 31.23 94.18C 22.760714 94.18 15.531726 91.18565 9.5430355 85.19696C 3.554345 79.208275 0.55999947 71.97929 0.55999947 63.51C 0.55999947 55.04071 3.554345 47.811726 9.5430355 41.823036C 15.531726 35.834343 22.760714 32.839996 31.23 32.839996C 39.699287 32.839996 46.928276 35.834343 52.91696 41.823036C 58.90566 47.811726 61.900005 55.04071 61.9 63.51C 61.900005 63.866898 61.893776 64.22369 61.881317 64.58037" stroke="#BFD9FF" stroke-width="1.11" fill="none" />
            <path d="M178.73 202.08L71.46 202.08C 70.34108 202.06523 69.30439 201.48946 68.70049 200.54738C 68.0966 199.6053 68.00625 198.4229 68.46 197.40001L68.46 197.40001L144.53 26.68C 145.05338 25.48448 146.22514 24.703306 147.53 24.68L147.53 24.68L254.84 24.68C 255.95892 24.694769 256.9956 25.270544 257.59952 26.212622C 258.2034 27.154701 258.29376 28.337107 257.84 29.36L257.84 29.36L181.77 200.11C 181.2317 201.30688 180.04236 202.0776 178.73 202.08z" stroke="none" fill="url(#1)" />
            <path d="M211.24 81.66L245.86 4C 246.24815 3.1198554 246.16612 2.103297 245.64188 1.2967705C 245.11765 0.4902439 244.22192 0.0025889874 243.26 0L243.26 0L146.12 0C 142.51663 0.0016822815 139.25053 2.1203384 137.78 5.41L137.78 5.41L102.64 84.24C 102.251854 85.12014 102.33388 86.136696 102.858116 86.94322C 103.382355 87.74975 104.278076 88.237404 105.24 88.24L105.24 88.24L201.07999 88.24C 205.46834 88.24355 209.44838 85.66594 211.24 81.66z" stroke="none" fill="#FFFFFF" fill-rule="nonzero" />
            <path d="M198.68 134.87L233.3 57.22C 233.68887 56.338234 233.60577 55.31968 233.07916 54.51259C 232.55254 53.7055 231.6537 53.219215 230.69 53.22L230.69 53.22L133.56 53.22C 129.95274 53.218315 126.683464 55.342953 125.22 58.64L125.22 58.64L90.08 137.45C 89.68625 138.32991 89.76574 139.3495 90.291115 140.15776C 90.81648 140.96603 91.715996 141.4526 92.68 141.45L92.68 141.45L188.51999 141.45C 192.90833 141.45355 196.88835 138.87593 198.68 134.87z" stroke="#FFFFFF" stroke-width="1.11" fill="none" />
            <path d="M154.65 107.44L159.09 107.44L147.17 130.72L75.11 130.72L78.02 125.03" stroke="#A1C2FF" stroke-width="0.55" fill="none" />
            <path transform="matrix(0.7556249 -0.6550046 0.6550046 0.7556249 17.21 107.21)"  d="M130.40999 30.53C 130.40999 21.45044 140.20601 14.09 152.29 14.09C 164.37398 14.09 174.17 21.45044 174.17 30.53C 174.17 39.609562 164.37398 46.97 152.29 46.97C 140.20601 46.97 130.40999 39.609562 130.40999 30.53" stroke="none" fill="#E6F4FF" fill-rule="nonzero" />
            <path transform="matrix(0.7556249 -0.6550046 0.6550046 0.7556249 17.21 107.21)"  d="M132.98999 30.53C 132.98999 22.521872 141.63089 16.03 152.29 16.03C 162.9491 16.03 171.59 22.521872 171.59 30.53C 171.59 38.53813 162.9491 45.03 152.29 45.03C 141.63089 45.03 132.98999 38.53813 132.98999 30.53" stroke="none" fill="#94C3FF" fill-rule="nonzero" />
            <path d="M152.59 33.88C 152.59 33.88 143.8 35.34 140.05 36.82C 138.23346 37.73179 136.9254 39.414646 136.49 41.4C 138.49 44.97 142.42 47.25 147.49 47.25C 154.05 47.25 160.8 43.46 165.12001 37.96C 162.77 34.53 152.59 33.88 152.59 33.88z" stroke="none" fill="#4361C4" fill-rule="nonzero" />
            <path d="M149.5 30.14L148 36.55C 147.8829 36.895077 147.92757 37.274548 148.12157 37.58301C 148.31557 37.891476 148.63826 38.096085 149 38.14C 150.75017 38.38846 152.53049 37.982548 154 37C 154.5928 36.635754 154.98683 36.02077 155.07 35.33C 155.28001 32.33 155.89001 26.210003 155.89001 26.210003L155.89001 26.210003L149.5 30.14z" stroke="none" fill="#FF8D68" fill-rule="nonzero" />
            <path d="M148.13 23.35C 148.13 23.35 144 31.72 144.81 34C 145.73999 35.53 154.04 32.09 155.4 29.85C 156.76 27.61 159.87999 23.55 157.4 21.01C 154.92 18.470001 151.26 19.3 148.13 23.35z" stroke="none" fill="#FF8D68" fill-rule="nonzero" />
            <path d="M148.13 23.35C 147.74638 21.572426 148.44357 19.735422 149.91 18.66C 152.41 16.92 155.61 17.27 156.77 19.01C 157.2192 19.648277 157.62994 20.312817 158 21C 158.77998 21.207035 159.39917 21.799795 159.64 22.57C 160.05 23.869999 157.45 27.18 156.39 28.13C 155.33 29.079998 155.55 29.13 155.55 29.13L155.55 29.13L155.2 28.67C 155.30595 27.316751 155.54375 25.977045 155.91 24.67C 156.05 23.89 155.15001 22.76 153.57 22.5C 151.99 22.24 151.44 23.7 148.13 23.35z" stroke="none" fill="#7E3636" fill-rule="nonzero" />
            <path d="M156.18 27.16C 156.48055 26.573828 157.13437 26.259176 157.78 26.39C 158.78 26.73 156.78 29.93 155.69 29.71C 154.6 29.489998 156.18 27.16 156.18 27.16z" stroke="none" fill="#FF8D68" fill-rule="nonzero" />
            <path d="M155.18 34.15C 153.95778 35.49135 152.46492 36.558167 150.79999 37.280003C 150.41998 37.4 149.85999 38.15 149.85999 38.15L149.85999 38.15L149.45999 37.15C 148.62688 36.671425 148.19841 35.709404 148.4 34.77L148.4 34.77L148.09999 35L147.31 37C 147.03398 37.82789 146.84627 38.68264 146.75 39.55L146.75 39.55L148.75 38.45C 149.4556 38.680264 150.2128 38.701107 150.93 38.510002C 150.93 38.510002 151.34999 39.9 151.71999 40.02C 152.08998 40.14 155.10999 37.29 155.56999 36.31C 155.8806 35.691605 156.0155 34.999798 155.95999 34.31L155.95999 34.31L155.18 34.15z" stroke="none" fill="#FFFFFF" fill-rule="nonzero" />
            <path d="M218.89 37.83L176.81 37.83C 176.2349 37.86516 175.68625 37.58447 175.37827 37.097515C 175.07027 36.610558 175.05179 35.994556 175.33 35.49L175.33 35.49L181.28 19.12C 181.80507 17.793186 183.04633 16.886564 184.47 16.79L184.47 16.79L226.55 16.79C 227.11682 16.768475 227.6517 17.052456 227.9514 17.534056C 228.25111 18.015656 228.26965 18.62096 228 19.12L228 19.12L222 35.49C 221.48853 36.7948 220.28543 37.70002 218.89 37.83z" stroke="none" fill="#A1C2FF" fill-rule="nonzero" fill-opacity="0.3882353" />
            <path d="M221.32 24.19L185.09 24.19L185.73 22.44L221.96 22.44L221.32 24.19L221.32 24.19" stroke="none" fill="#94C3FF" fill-rule="nonzero" />
            <path d="M205.42 28.28L183.6 28.28L184.24 26.53L206.06 26.53L205.42 28.28L205.42 28.28" stroke="none" fill="#94C3FF" fill-rule="nonzero" />
            <path d="M187.9 31.98L182.25 31.98L182.89 30.23L188.54 30.23L187.9 31.98L187.9 31.98" stroke="none" fill="#94C3FF" fill-rule="nonzero" />
            <path d="M178.76 45.35C 178.12006 46.852028 176.69778 47.87344 175.07 48C 173.61 48 172.91 46.82 173.5 45.36C 174.14392 43.864292 175.56607 42.850674 177.19 42.73C 178.65 42.72 179.35 43.9 178.76 45.35z" stroke="none" fill="#94C3FF" fill-rule="nonzero" />
            <path d="M187.91 45.35C 187.26552 46.85115 185.83916 47.868874 184.21 47.989998C 182.76001 47.989998 182.05 46.809998 182.64 45.35C 183.29099 43.855675 184.71472 42.843666 186.34 42.719997C 187.79 42.72 188.5 43.9 187.91 45.35z" stroke="none" fill="#94C3FF" fill-rule="nonzero" />
            <path d="M197.05 45.35C 196.4119 46.853504 194.98859 47.87566 193.36 48C 191.9 48 191.2 46.82 191.79 45.36C 192.43918 43.864216 193.86394 42.851482 195.48999 42.73C 196.94 42.72 197.64 43.9 197.05 45.35z" stroke="none" fill="#94C3FF" fill-rule="nonzero" />
            <path d="M206.2 45.35C 205.55841 46.855045 204.13148 47.87704 202.5 48C 201.05 48 200.35 46.82 200.93 45.36C 201.581 43.865677 203.00473 42.85367 204.62999 42.73C 206.09 42.72 206.79 43.9 206.2 45.35z" stroke="none" fill="#FF8D02" fill-rule="nonzero" />
            <path d="M215.35 45.35C 214.70367 46.84968 213.27835 47.86667 211.65001 47.989998C 210.20001 47.989998 209.49 46.809998 210.08 45.35C 210.72919 43.854214 212.15395 42.84148 213.78 42.719997C 215.23 42.72 215.93 43.9 215.35 45.35z" stroke="none" fill="#A1C2FF" fill-rule="nonzero" fill-opacity="0.3882353" />
            <path d="M193.62 53.36L182 65.42L169.98 70.19L183.61 80.2L197.31 68.51L193.62 53.36L193.62 53.36" stroke="none" fill="#A1C2FF" fill-rule="nonzero" fill-opacity="0.3882353" />
            <path d="M190.87 60.37L182 65.42L174.51 70.16L184.68 77.46L194.28 68.68L190.87 60.37L190.87 60.37" stroke="none" fill="#A1C2FF" fill-rule="nonzero" fill-opacity="0.69803923" />
            <path d="M193.62 53.36L182 65.42L169.98 70.19L183.57 80.3L197.31 68.51L193.62 53.36L193.62 53.36" stroke="#4361C4" stroke-width="0.28" fill="none" />
            <path d="M188.16 69.63C 187.95334 70.10751 187.49889 70.43103 186.98001 70.46999C 186.52 70.46999 186.29001 70.09999 186.48001 69.63C 186.69023 69.155365 187.1427 68.83327 187.66 68.79C 188.13 68.79 188.35 69.17 188.16 69.63z" stroke="none" fill="#4361C4" fill-rule="nonzero" />
            <path d="M176.75 61.31L187.02 69.44L168.68 70.38" stroke="#4361C4" stroke-width="0.28" fill="none" />
            <path d="M182.81 83.1L187.4 69.44L199.49 68.23" stroke="#4361C4" stroke-width="0.28" fill="none" />
            <path d="M194.3 51.67L187.4 69.44" stroke="#4361C4" stroke-width="0.28" fill="none" />
            <path d="M177.68 61.15C 177.33179 61.958916 176.55888 62.50381 175.68 62.56C 174.9 62.56 174.51999 61.93 174.84 61.15C 175.1882 60.341087 175.9611 59.796192 176.84 59.74C 177.62 59.74 178 60.37 177.68 61.15z" stroke="none" fill="#94C3FF" fill-rule="nonzero" />
            <path d="M169.37 70.39C 169.0163 71.19444 168.24652 71.73714 167.37 71.8C 166.59 71.8 166.22 71.170006 166.53 70.39C 166.88007 69.58259 167.6519 69.03844 168.53 68.979996C 169.3 69 169.68 69.61 169.37 70.39z" stroke="none" fill="#FF8D02" fill-rule="nonzero" />
            <path d="M184.15 83.32C 183.79735 84.12687 183.02802 84.673096 182.15 84.74C 181.37 84.74 181 84.1 181.31 83.32C 181.6637 82.51556 182.43347 81.97286 183.31 81.909996C 184.09 81.91 184.46 82.54 184.15 83.32z" stroke="none" fill="#94C3FF" fill-rule="nonzero" />
            <path d="M201.13 68.25C 200.77994 69.05741 200.0081 69.60156 199.13 69.66C 198.35 69.66 197.97 69.03001 198.28 68.25C 198.63264 67.44313 199.40198 66.896904 200.28 66.83C 201.07 66.83 201.45 67.47 201.13 68.25z" stroke="none" fill="#94C3FF" fill-rule="nonzero" />
            <path d="M195.86 51.2C 195.5118 52.00891 194.73889 52.553806 193.86 52.61C 193.08 52.61 192.7 51.98 193.02 51.2C 193.36821 50.39109 194.14111 49.846195 195.02 49.79C 195.8 49.79 196.18 50.42 195.86 51.2z" stroke="none" fill="#FF8D02" fill-rule="nonzero" />
            <path d="M163.78 62.99L128.56 62.99L131.25 56.33L166.47 56.33L163.78 62.99L163.78 62.99" stroke="none" fill="#4361C4" fill-rule="nonzero" />
            <path d="M142.57 77.98L122.5 77.98L123.66 75.13L143.73 75.13L142.57 77.98L142.57 77.98" stroke="none" fill="#A1C2FF" fill-rule="nonzero" fill-opacity="0.3882353" />
            <path d="M139.56 72.27L124.81 72.27L127.5 65.61L142.26 65.61L139.56 72.27L139.56 72.27" stroke="none" fill="#A1C2FF" fill-rule="nonzero" fill-opacity="0.3882353" />
            <path d="M217.8 143.37L235 104.71C 235.19617 104.27165 235.15749 103.76387 234.89719 103.3603C 234.63689 102.95673 234.19025 102.712074 233.71 102.71L233.71 102.71L185.37 102.71C 183.57523 102.71273 181.94974 103.77027 181.22 105.409996L181.22 105.409996L163.72 144.66C 163.52312 145.09996 163.56287 145.60976 163.82556 146.01389C 164.08824 146.41803 164.538 146.66132 165.02 146.66L165.02 146.66L212.74 146.66C 214.92844 146.65901 216.9112 145.36983 217.8 143.37z" stroke="none" fill="#FFFFFF" fill-rule="nonzero" />
            <path transform="matrix(0.77 -0.63 0.63 0.77 -33.28 154.61)"  d="M180.87 123.93C 180.87 116.88837 189.39897 111.18 199.92 111.18C 210.44102 111.18 218.97 116.88837 218.97 123.93C 218.97 130.97163 210.44102 136.68 199.92 136.68C 189.39897 136.68 180.87 130.97163 180.87 123.93" stroke="none" fill="#A1C2FF" fill-rule="nonzero" fill-opacity="0.3882353" />
			<g clip-path="url(#1)" >
                <path d="M201.21 125.55C 201.21 125.55 209.05 129.45 209.88 133.02C 210.71 136.59001 207.23001 146.02 207.23001 146.02L207.23001 146.02L176.06 146.02C 176.06 146.02 181.17 135.02 185.14 132.38C 189.11 129.74 196.78 127.8 196.78 127.8L196.78 127.8L201.21 125.55z" stroke="none" fill="#4385FF" fill-rule="nonzero" />
                <path d="M198 123L195.55 128.29C 195.24 128.95 195.42 129.54999 195.99 129.73C 197.40742 130.11446 198.91841 129.93901 200.21 129.23999C 200.75613 128.97087 201.1733 128.49619 201.37001 127.91999C 202.12001 125.40999 203.8 120.27999 203.8 120.27999L203.8 120.27999L198 123z" stroke="none" fill="#94C3FF" fill-rule="nonzero" />
                <path d="M198.26 117.15C 198.26 117.15 193.37999 123.85 193.56999 125.83C 193.98999 127.21 201.18 125.04 202.68999 123.26C 204.19998 121.48 207.43999 118.33 206.02998 115.96C 204.61998 113.59 201.5 114 198.26 117.15z" stroke="none" fill="#94C3FF" fill-rule="nonzero" />
                <path d="M198.46 116.16C 198.39859 116.246925 198.34184 116.33705 198.29001 116.43C 198.00002 116.9 197.58 117.86 198.76001 117.93L198.76001 117.93L200.32 118.01C 200.32 118.01 202.83 116.58 203.82 118.1C 204.55 119.61 202.16 120.53 202.36 121.29C 202.56 122.05 202.46 121.88 202.12 122.29C 201.71896 122.990074 201.11118 123.54896 200.37999 123.89C 199.24998 124.39 198.37999 124.31 197.27998 124.89C 196.17998 125.47 194.11998 124.8 193.90999 124.3C 193.4 123.880005 193.10999 124.8 192.79 125.39C 192.47 125.979996 191.48 126.15 192.43 126.9C 193.37999 127.65 194.09 128 195.76 126.99C 196.77672 126.288795 197.9392 125.827225 199.15999 125.64C 200.60664 125.360725 201.88937 124.53305 202.73999 123.33C 203.37999 122.33 203.59 120.93 204.12999 120.43C 204.66998 119.93 204.96999 120.43 204.73 121.02C 204.49 121.60999 206.78 120.509995 207.33 118.75C 207.88 116.990005 206.92 117.07 206.82 116.06C 206.72002 115.049995 207.87001 113.869995 206.65001 112.95C 205.43001 112.03 204.27 113.2 203.84001 112.61C 203.41002 112.020004 201.51001 111.94 199.99 113.2C 199.09018 113.95793 198.51419 115.0312 198.38 116.2" stroke="none" fill="#4361C4" fill-rule="nonzero" />
                <path d="M203.84 120.59C 203.84 120.59 204.5 119.74 205.23999 120.079994C 205.97998 120.41999 203.76 122.979996 202.95999 122.7C 202.15999 122.42 203.84 120.59 203.84 120.59z" stroke="none" fill="#94C3FF" fill-rule="nonzero" />
                <path d="M193.38 124.57C 193.38 124.57 194.1 121.96 195.92 121.63C 197.73999 121.299995 198.55 122.38 198.43 123.31C 198.37985 123.87722 198.64478 124.42626 199.12 124.74C 199.12 124.74 194.53 126.92 193.38 124.57z" stroke="none" fill="#4361C4" fill-rule="nonzero" />
			</g>
            <path d="M196.11 195.56L213.35 156.9C 213.55266 156.46028 213.51552 155.94736 213.25166 155.54143C 212.98781 155.13548 212.53412 154.89333 212.05 154.9L212.05 154.9L163.69 154.9C 161.89682 154.8984 160.27072 155.95244 159.54001 157.59L159.54001 157.59L142 196.85C 141.79735 197.28972 141.83449 197.80264 142.09834 198.20857C 142.3622 198.61452 142.81589 198.85667 143.3 198.85L143.3 198.85L191.02 198.85C 193.22083 198.86612 195.22093 197.57332 196.11 195.56z" stroke="none" fill="#FFFFFF" fill-rule="nonzero" />
            <path transform="matrix(0.7739507 -0.6332458 0.6332458 0.7739507 -71.09 152.54)"  d="M158.65 175.85C 158.65 168.65373 167.367 162.82 178.12 162.82C 188.87299 162.82 197.59 168.65373 197.59 175.85C 197.59 183.04628 188.87299 188.88 178.12 188.88C 167.367 188.88 158.65 183.04628 158.65 175.85" stroke="none" fill="#A1C2FF" fill-rule="nonzero" fill-opacity="0.3882353" />
			<g clip-path="url(#2)" >
                <path d="M182.54 171.32C 182.54 171.32 184.90999 170.19 185.23 171.56001C 185.39255 172.416 185.11894 173.2968 184.5 173.91002C 184.5 173.91002 186.64 173.32002 187.22 175.15002C 187.8 176.98003 186.07 177.85002 186.78 178.51003C 187.48999 179.17003 188.97 180.51003 186.9 182.87003C 184.82999 185.23003 181.81 187.87003 178.29999 186.14003C 174.78998 184.41003 175.90999 176.14003 175.90999 176.14003L175.90999 176.14003L176.76999 173.70003L182.54 171.32z" stroke="none" fill="#4361C4" fill-rule="nonzero" />
                <path d="M180.25 164.32C 180.25 164.32 174.96 164.77 173.25 168.47C 171.54 172.17 174.9 172.47 174.9 172.47L174.9 172.47L180.25 164.32z" stroke="none" fill="#4361C4" fill-rule="nonzero" />
                <path d="M145.89 189.49L146.23 190.11C 148.6152 192.94556 151.18762 195.61821 153.93 198.11L153.93 198.11L161.48 198.11C 164.82932 194.96951 167.95056 191.59428 170.81999 188.01C 170.81999 187.65 175.54999 182.53 174.51999 180.45C 173.48999 178.37 172.13998 178.7 172.13998 178.7C 170.87463 179.01155 169.73833 179.71082 168.88998 180.7C 167.16998 182.48 158.67998 195.63 158.67998 195.63C 157.8768 194.29256 156.82846 193.11868 155.58998 192.17C 153.58998 190.67 147.71999 187.51 147.71999 187.51C 147.71999 187.51 148.07999 184.97 148.04 184.51C 148 184.04999 146.54999 181.81 146.09999 182.28C 145.65 182.75 146.7 184.84 146.7 184.84C 146.7 184.84 145.55 188.88 145.89 189.49z" stroke="none" fill="#94C3FF" fill-rule="nonzero" />
                <path d="M164.78 194.39C 164.78 194.39 165.01 196.01 165.44 198.08L165.44 198.08L180.44 198.08C 180.77 194.7 181.44 187.89 181.89 186.28C 182.45 184.11 181.95 179.49 182.13 178.22C 182.31001 176.95 178.69 177.42 178.69 177.42L178.69 177.42L173.97 177.5L173.21 177.82C 172.14299 178.28084 171.23279 179.04166 170.59001 180.01001C 170.01001 180.90001 169.15001 182.20001 167.99 183.91C 166.13 185.33 161.99 187.79001 162.32 190.91C 162.65001 194.03 164.78 194.39 164.78 194.39z" stroke="none" fill="#4385FF" fill-rule="nonzero" />
                <path d="M175.54 174.62C 172.90686 178.07498 171.08208 182.0765 170.2 186.33C 171.56999 185.91 175.72 182.09 178.2 179.77C 179.02817 179.22395 179.40823 178.20505 179.14 177.25C 179.25311 176.06012 179.56406 174.89749 180.06 173.81C 180.42 171.64 175.54 174.62 175.54 174.62z" stroke="none" fill="#94C3FF" fill-rule="nonzero" />
                <path d="M188.69 195.83C 188.69 195.83 189.34 196.73 190.42 198.08L190.42 198.08L197.13 198.08C 195.83 196.37 194.81 194.98 194.49 194.5C 193.39 192.84 185.72 176.12 181.05 178.2C 180.19 178.58 177.05 181.2 178.34 184.14C 179.62999 187.08 188.69 195.83 188.69 195.83z" stroke="none" fill="#94C3FF" fill-rule="nonzero" />
                <path d="M175.36 167.78C 174.122 169.31958 173.01796 170.96223 172.06 172.69C 171.19 174.37 171.78 175.90001 173.39 176.07C 175.69 176.32 179.21 175.74 180.39 174.42001C 182.11 172.42001 185.79 168.99002 184.3 166.29001C 182.81001 163.59 179.54001 163.94 175.98001 167.14001C 175.75471 167.33446 175.54723 167.54865 175.36 167.78z" stroke="none" fill="#94C3FF" fill-rule="nonzero" />
                <path d="M176.91 166.07C 176.91 166.07 174.6 169.85 181.17 172.27L181.17 172.27L181.99 172.64C 181.99 172.64 184.87001 170.36 184.91 167.95C 185.09857 166.25465 184.07146 164.6597 182.45 164.12999C 181.2 163.61 177.79 165.17 176.91 166.07z" stroke="none" fill="#4361C4" fill-rule="nonzero" />
                <path d="M181 172.81C 181 172.81 182.66 171.67 182.64 172.72C 182.62 173.77 180.29 174.92 180.04 174.48C 179.79 174.04 181 172.81 181 172.81z" stroke="none" fill="#94C3FF" fill-rule="nonzero" />
			</g>
            <path d="M143.56 163.52L90.29 163.52C 88.66 163.52 87.87 162.2 88.53 160.52L88.53 160.52L92.31 151.15001C 93.028244 149.4521 94.63218 148.29543 96.47 148.15001L96.47 148.15001L149.74 148.15001C 151.37001 148.15001 152.16 149.48001 151.5 151.15001L151.5 151.15001L147.72 160.52C 147.00175 162.21791 145.39783 163.37459 143.56 163.52z" stroke="none" fill="#4385FF" fill-rule="nonzero" />
            <path d="M143.14 156.62L97.27 156.62L98.17 154.4L144.04 154.4L143.14 156.62L143.14 156.62" stroke="none" fill="#FFFFFF" fill-rule="nonzero" />
            <path d="M100.48 9.19L98.68 9.19C 98.36 9.19 98.2 8.929999 98.33 8.61L98.33 8.61L99.060005 6.8099995C 99.207634 6.4863625 99.51607 6.2655077 99.87 6.2299995L99.87 6.2299995L101.670006 6.2299995C 101.990005 6.2299995 102.15001 6.49 102.020004 6.8099995L102.020004 6.8099995L101.29 8.61C 101.14237 8.933637 100.83394 9.154491 100.48 9.19z" stroke="none" fill="#F9FBFC" fill-rule="nonzero" />
            <path d="M119 9.19L117.19 9.19C 116.880005 9.19 116.72 8.929999 116.850006 8.61L116.850006 8.61L117.58001 6.8099995C 117.72764 6.4863625 118.03607 6.2655077 118.39001 6.2299995L118.39001 6.2299995L120.19001 6.2299995C 120.51001 6.2299995 120.66001 6.49 120.53001 6.8099995L120.53001 6.8099995L119.810005 8.61C 119.66238 8.933639 119.35394 9.154493 119 9.19z" stroke="none" fill="#BFD9FF" fill-rule="nonzero" />
            <path d="M97 17.68L95.2 17.68C 94.88 17.68 94.729996 17.43 94.86 17.11L94.86 17.11L95.590004 15.31C 95.73763 14.986363 96.04607 14.765509 96.4 14.7300005L96.4 14.7300005L98.200005 14.7300005C 98.520004 14.7300005 98.670006 14.990001 98.54 15.31L98.54 15.31L97.82 17.11C 97.6679 17.432652 97.35544 17.649849 97 17.68z" stroke="none" fill="#BFD9FF" fill-rule="nonzero" />
            <path d="M106.28 17.68L104.479996 17.68C 104.159996 17.68 104.009995 17.43 104.14 17.11L104.14 17.11L104.87 15.31C 105.01763 14.986363 105.326065 14.765509 105.68 14.7300005L105.68 14.7300005L107.48 14.7300005C 107.8 14.7300005 107.950005 14.990001 107.82 15.31L107.82 15.31L107.09 17.11C 106.95011 17.438374 106.63632 17.659191 106.28 17.68z" stroke="none" fill="#F9FBFC" fill-rule="nonzero" />
            <path d="M115.52 17.68L113.71999 17.68C 113.399994 17.68 113.24999 17.43 113.38 17.11L113.38 17.11L114.1 15.31C 114.24763 14.986363 114.55606 14.765509 114.909996 14.7300005L114.909996 14.7300005L116.71999 14.7300005C 117.02999 14.7300005 117.189995 14.990001 117.05999 15.31L117.05999 15.31L116.32999 17.11C 116.17965 17.429756 115.871735 17.64644 115.52 17.68z" stroke="none" fill="#F9FBFC" fill-rule="nonzero" />
            <path d="M122.91 17.68L121.11 17.68C 120.79 17.68 120.64 17.43 120.770004 17.11L120.770004 17.11L121.490005 15.31C 121.63939 14.983467 121.95237 14.76209 122.310005 14.7300005L122.310005 14.7300005L124.11001 14.7300005C 124.43001 14.7300005 124.58001 14.990001 124.450005 15.31L124.450005 15.31L123.72 17.11C 123.569664 17.429758 123.26174 17.646444 122.91 17.68z" stroke="none" fill="#F9FBFC" fill-rule="nonzero" />
            <path d="M93.61 26.18L91.81 26.18C 91.49 26.18 91.34 25.93 91.47 25.61L91.47 25.61L92.19 23.810001C 92.33763 23.486362 92.646065 23.265509 93 23.230001L93 23.230001L94.81 23.230001C 95.119995 23.230001 95.28 23.490002 95.149994 23.810001L95.149994 23.810001L94.41999 25.61C 94.26966 25.929756 93.96175 26.14644 93.61 26.18z" stroke="none" fill="#F9FBFC" fill-rule="nonzero" />
            <path d="M86.22 26.18L84.42 26.18C 84.1 26.18 83.95 25.93 84.07 25.61L84.07 25.61L84.8 23.810001C 84.94763 23.486362 85.256065 23.265509 85.61 23.230001L85.61 23.230001L87.41 23.230001C 87.73 23.230001 87.89001 23.490002 87.76 23.810001L87.76 23.810001L87 25.61C 86.85511 25.921318 86.56062 26.136522 86.22 26.18z" stroke="none" fill="#F9FBFC" fill-rule="nonzero" />
            <path d="M102.85 26.18L101.049995 26.18C 100.729996 26.18 100.56999 25.93 100.7 25.61L100.7 25.61L101.43 23.810001C 101.57763 23.486362 101.88606 23.265509 102.24 23.230001L102.24 23.230001L104 23.230001C 104.32 23.230001 104.48 23.490002 104.35 23.810001L104.35 23.810001L103.619995 25.61C 103.47697 25.918583 103.186905 26.133308 102.85 26.18z" stroke="none" fill="#F9FBFC" fill-rule="nonzero" />
            <path d="M112.09 26.18L110.28999 26.18C 109.96999 26.18 109.80999 25.93 109.939995 25.61L109.939995 25.61L110.67 23.810001C 110.81763 23.486362 111.12606 23.265509 111.479996 23.230001L111.479996 23.230001L113.28 23.230001C 113.6 23.230001 113.76 23.490002 113.63 23.810001L113.63 23.810001L112.899994 25.61C 112.74966 25.929758 112.441734 26.146444 112.09 26.18z" stroke="none" fill="#BFD9FF" fill-rule="nonzero" />
            <path d="M90.18 34.68L88.38 34.68C 88.24053 34.687813 88.10802 34.618473 88.03493 34.499435C 87.96183 34.380394 87.95994 34.230846 88.03 34.11L88.03 34.11L88.76 32.3C 88.91034 31.980242 89.21826 31.763556 89.57 31.73L89.57 31.73L91.37 31.73C 91.69 31.73 91.840004 31.99 91.72 32.3L91.72 32.3L91 34.11C 90.84789 34.43265 90.53543 34.64985 90.18 34.68z" stroke="none" fill="#F9FBFC" fill-rule="nonzero" />
            <path d="M101.21 176L98.67 176C 98.22 176 98.009995 175.64 98.189995 175.19L98.189995 175.19L99.189995 172.65001C 99.39489 172.18881 99.83674 171.8776 100.34 171.84001L100.34 171.84001L102.88 171.84001C 103.329994 171.84001 103.54 172.20001 103.36 172.65001L103.36 172.65001L102.36 175.19C 102.15511 175.6512 101.713264 175.96242 101.21 176z" stroke="none" fill="#4385FF" fill-rule="nonzero" />
            <path d="M127.26 176L124.72 176C 124.270004 176 124.05 175.64 124.23 175.19L124.23 175.19L125.23 172.65001C 125.42781 172.18741 125.86808 171.87459 126.37 171.84001L126.37 171.84001L128.91 171.84001C 129.36 171.84001 129.58 172.20001 129.39 172.65001L129.39 172.65001L128.39 175.19C 128.19023 175.64668 127.75664 175.95749 127.26 176z" stroke="none" fill="#4385FF" fill-rule="nonzero" />
            <path d="M96.37 188L93.83 188C 93.380005 188 93.17 187.64 93.35 187.19L93.35 187.19L94.35 184.65001C 94.55489 184.18881 94.99674 183.8776 95.5 183.84001L95.5 183.84001L98.04 183.84001C 98.49 183.84001 98.700005 184.20001 98.520004 184.65001L98.520004 184.65001L97.520004 187.19C 97.31512 187.6512 96.87327 187.96242 96.37 188z" stroke="none" fill="#BFD9FF" fill-rule="nonzero" />
            <path d="M109.39 188L106.85 188C 106.409996 188 106.189995 187.64 106.369995 187.19L106.369995 187.19L107.369995 184.65001C 107.567795 184.18741 108.008064 183.87459 108.509995 183.84001L108.509995 183.84001L111.049995 183.84001C 111.49999 183.84001 111.71 184.20001 111.53 184.65001L111.53 184.65001L110.53 187.19C 110.3268 187.64822 109.88957 187.95888 109.39 188z" stroke="none" fill="#FF8D02" fill-rule="nonzero" />
            <path d="M122.42 188L119.88 188C 119.43 188 119.21 187.64 119.39 187.19L119.39 187.19L120.39 184.65001C 120.5878 184.18741 121.02807 183.87459 121.53 183.84001L121.53 183.84001L124.07 183.84001C 124.52 183.84001 124.74 184.20001 124.55 184.65001L124.55 184.65001L123.55 187.19C 123.350235 187.64668 122.91664 187.95749 122.42 188z" stroke="none" fill="#BFD9FF" fill-rule="nonzero" />
            <path d="M132.83 188L130.29001 188C 129.84001 188 129.63 187.64 129.81001 187.19L129.81001 187.19L130.81001 184.65001C 131.0149 184.18881 131.45674 183.8776 131.96 183.84001L131.96 183.84001L134.5 183.84001C 134.95 183.84001 135.16 184.20001 134.98 184.65001L134.98 184.65001L133.98 187.19C 133.7806 187.65567 133.33563 187.96909 132.83 188z" stroke="none" fill="#BFD9FF" fill-rule="nonzero" />
            <path d="M91.53 200L89 200C 88.55 200 88.34 199.64 88.52 199.19L88.52 199.19L89.52 196.65001C 89.72489 196.18881 90.16674 195.8776 90.67 195.84001L90.67 195.84001L93.21 195.84001C 93.659996 195.84001 93.87 196.20001 93.69 196.65001L93.69 196.65001L92.69 199.19C 92.48345 199.65422 92.03695 199.966 91.53 200z" stroke="none" fill="#BFD9FF" fill-rule="nonzero" />
            <path d="M81.12 200L78.58 200C 78.130005 200 77.91 199.64 78.090004 199.19L78.090004 199.19L79.090004 196.65001C 79.28781 196.18741 79.72808 195.87459 80.23 195.84001L80.23 195.84001L82.8 195.84001C 83.25 195.84001 83.47 196.20001 83.28001 196.65001L83.28001 196.65001L82.28001 199.19C 82.075264 199.6557 81.62773 199.9682 81.12 200z" stroke="none" fill="#BFD9FF" fill-rule="nonzero" />
            <path d="M104.55 200L102 200C 101.56 200 101.34 199.64 101.52 199.19L101.52 199.19L102.52 196.65001C 102.717804 196.18741 103.15807 195.87459 103.659996 195.84001L103.659996 195.84001L106.2 195.84001C 106.649994 195.84001 106.86 196.20001 106.68 196.65001L106.68 196.65001L105.68 199.19C 105.4785 199.64526 105.04587 199.95538 104.55 200z" stroke="none" fill="#BFD9FF" fill-rule="nonzero" />
            <path d="M117.58 200L115 200C 114.55 200 114.33 199.64 114.51 199.19L114.51 199.19L115.51 196.65001C 115.70781 196.18741 116.14808 195.87459 116.65 195.84001L116.65 195.84001L119.19 195.84001C 119.64 195.84001 119.86 196.20001 119.670006 196.65001L119.670006 196.65001L118.670006 199.19C 118.47712 199.63506 118.06178 199.9437 117.58 200z" stroke="none" fill="#FF8D02" fill-rule="nonzero" />
            <path d="M86.69 212L84.15 212C 83.700005 212 83.49 211.64 83.67 211.19L83.67 211.19L84.67 208.65001C 84.874886 208.18881 85.316734 207.8776 85.82 207.84001L85.82 207.84001L88.36 207.84001C 88.81 207.84001 89.020004 208.20001 88.840004 208.65001L88.840004 208.65001L87.840004 211.19C 87.63511 211.6512 87.19326 211.96242 86.69 212z" stroke="none" fill="#FF8D02" fill-rule="nonzero" />
            <path d="M145.5 125.59L73.44 125.59L85.36 102.31L157.42 102.31L145.5 125.59L145.5 125.59" stroke="none" fill="#A1C2FF" fill-rule="nonzero" fill-opacity="0.3882353" />
            <path transform="matrix(0.7495336 -0.66196626 0.66196626 0.7495336 -41.82 117.16)"  d="M123.2 113.85C 123.2 109.232895 127.999504 105.49 133.92 105.49C 139.84048 105.49 144.64 109.232895 144.64 113.85C 144.64 118.4671 139.84048 122.21 133.92 122.21C 127.999504 122.21 123.2 118.4671 123.2 113.85" stroke="none" fill="#73A5FF" fill-rule="nonzero" />
            <path d="M131.48 118.66C 131.1932 118.671135 130.91833 118.54484 130.73999 118.32001L130.73999 118.32001L128.29999 115.060005C 127.985115 114.49045 128.16414 113.774376 128.70999 113.420006C 128.92482 113.197586 129.22078 113.07197 129.53 113.07197C 129.83922 113.07197 130.13518 113.197586 130.34999 113.420006L130.34999 113.420006L132.18 115.850006L138.71999 110.62C 139.17293 110.16732 139.90703 110.16732 140.35999 110.62C 140.676 111.19258 140.49724 111.91195 139.94998 112.270004L139.94998 112.270004L132.38998 118.270004C 132.14182 118.50274 131.8197 118.64079 131.48 118.66z" stroke="none" fill="#FFFFFF" fill-rule="nonzero" />
            <path d="M77.13 58C 76.96314 59.605846 75.55534 60.79165 73.9445 60.683178C 72.333664 60.574707 71.09756 59.210865 71.1475 57.59715C 71.19745 55.983433 72.51553 54.698647 74.13 54.69C 75.872154 54.77625 77.214935 56.257782 77.13 58z" stroke="#505E83" stroke-width="0.52" fill="none" />
            <path d="M45.8 75.9C 42.438034 76.37628 39.422924 78.22227 37.47 81C 33.91 85.81 39.08 103.45 54.410004 110.58C 64.41 114.5 65.100006 105.58 62.600002 99.350006C 60.1 93.12001 52.89 77.36 45.8 75.9z" stroke="none" fill="#FFFFFF" fill-rule="nonzero" />
            <path d="M113.94 264.8C 113.94 267.06998 92.08 268.9 65.11 268.9C 38.14 268.9 16.279999 267.07 16.279999 264.8C 16.279999 262.52997 38.14 260.69998 65.11 260.69998C 92.08 260.69998 113.94 262.54 113.94 264.8z" stroke="none" fill="#BFD9FF" fill-rule="nonzero" />
            <path d="M47.27 251.54C 47.27 251.54 48.27 249.31999 52.15 249.90999C 56.030003 250.49998 56.440002 251.23999 56.89 253.15999C 57.339996 255.07999 58.66 257.15997 59.55 257.59998C 60.44 258.03998 63.69 260.27 66.36 260.70996C 69.03 261.14993 69.36 262.77997 68.73 263.51996C 68.100006 264.25995 58.070004 264.84995 55.850002 264.51996C 55.850002 264.51996 48.300003 264.36996 46.530003 263.77997C 44.760002 263.18997 47.12 252.28 47.27 251.54z" stroke="none" fill="#16142A" fill-rule="nonzero" />
            <path d="M66.55 251.54C 66.55 251.54 67.55 249.31999 71.43 249.90999C 75.31 250.49998 75.72 251.23999 76.17 253.15999C 76.619995 255.07999 77.939995 257.15997 78.83 257.59998C 79.72001 258.03998 82.98 260.27 85.64 260.70996C 88.299995 261.14993 88.64 262.77997 88.01 263.51996C 87.380005 264.25995 77.350006 264.84995 75.130005 264.51996C 75.130005 264.51996 67.590004 264.36996 65.810005 263.77997C 64.03001 263.18997 66.4 252.28 66.55 251.54z" stroke="none" fill="#16142A" fill-rule="nonzero" />
            <path d="M43.71 196.44C 43.124146 192.74406 45.431793 189.20482 49.05 188.25C 55.53 186.19 56.75 189.18 58.71 194.77C 60.67 200.36002 57.05 253.15001 57.05 253.15001C 57.05 253.15001 49.17 253.33 47.26 252.15001C 47.26 252.15001 41.98 217.15001 42.379997 208.59001C 42.779995 200.03001 43.71 196.44 43.71 196.44z" stroke="none" fill="#2B3554" fill-rule="nonzero" />
            <path d="M74 60.26C 74 60.26 75.52 62.309998 75.52 63.379997C 75.52 64.45 73.52 64.45 73.52 64.45L73.52 64.45L74 60.26z" stroke="none" fill="#FF7759" fill-rule="nonzero" />
            <path d="M66.72 39.39C 66.72 39.39 71.1 40.51 73.58 47.23C 76.060005 53.95 74.4 68.229996 72.75 69.92C 71.1 71.61 66.07 70.92 59.11 68.659996C 51.75 66.23 49.26 58.58 48 53.53C 45.43 43.87 53.83 33.93 66.72 39.39z" stroke="none" fill="#FF8D68" fill-rule="nonzero" />
            <path d="M51 76.5L54.56 63.77C 54.56 63.77 61.66 61.7 66.1 66.43L66.1 66.43L67.58 68.51L67.58 76.79C 62.07907 77.66603 56.46693 77.56787 51 76.5z" stroke="none" fill="#FF8D68" fill-rule="nonzero" />
            <path d="M41.1 145C 39.512306 156.04323 39.512306 167.25676 41.1 178.3C 43.76 196.06 49.1 197.83 53.969997 197.83C 58.839996 197.83 60.19 183.63 61.079998 177.41C 61.969997 171.19 65.52 149.9 58.86 145C 52.200005 140.1 44.65 139.69 41.1 145z" stroke="none" fill="#2B3554" fill-rule="nonzero" />
            <path d="M59.74 165.88C 59.74 165.88 54.420002 151.67 63.74 145.46C 73.06 139.25002 80.17 140.13 82.39 150.34001C 84.61 160.55002 85.05 195.62001 81.94 202.73001C 78.83 209.84001 67.74 198.73 59.74 165.88z" stroke="none" fill="#2B3F63" fill-rule="nonzero" />
            <path d="M49.13 76.43C 49.13 76.43 50.13 72.94 51.010002 72.65C 51.890003 72.36 62.850002 71.17 68.770004 74.72C 71.44 76.79 71.14001 78.270004 71.14001 78.270004C 71.14001 78.270004 53.47 74.88 49.13 76.43z" stroke="none" fill="#FFFFFF" fill-rule="nonzero" />
            <path d="M81.68 145C 81.68 145 82.57 147.14 82.03 147.85C 81.32 148.57 61.18 155.70001 39.969997 150.53C 39.609997 150.53 40.499996 146.95999 40.499996 146.95999L40.499996 146.95999L81.68 145z" stroke="none" fill="#6060E7" fill-rule="nonzero" />
            <path d="M39.77 112.9C 39.170002 108.76 37.4 88.340004 37.99 85.380005C 38.54 82.61001 40.910004 77.520004 45.800003 75.90001C 46.150616 75.78226 46.50792 75.68542 46.870003 75.61001C 46.870003 75.61001 65.22 74.420006 78.240005 80.05001C 78.240005 80.05001 82.700005 83.75001 83.520004 102.62001C 83.520004 102.62001 83.28001 105.80001 82.520004 112.57001C 81.76 119.340004 82.87 124.34001 83.94 131.11002C 85.01 137.88002 87.15 144.66002 79.310005 146.11002C 71.82001 147.54001 51.150005 151.11002 39.030006 147.54001C 36.530006 145.76001 40.100006 137.54001 40.100006 131.14001C 40.100006 124.74002 39.77 112.9 39.77 112.9z" stroke="none" fill="#8182EE" fill-rule="nonzero" />
            <path d="M68.18 197.4C 68.0112 193.6609 70.697716 190.39993 74.4 189.84999C 81.05 188.51999 81.94 191.62999 83.270004 197.4C 84.600006 203.17 76.71001 253.5 76.71001 253.5C 76.71001 253.5 68.00001 254.01 66.22001 252.67C 66.22001 252.67 64.22001 217.82 65.52001 209.39C 66.820015 200.95999 68.18 197.4 68.18 197.4z" stroke="none" fill="#2B3F63" fill-rule="nonzero" />
            <path d="M58 162.55C 58 162.55 64.21 182.55 68.88 192.29001" stroke="#2A2E59" stroke-width="0.67" fill="none" />
            <path d="M70.62 196.29C 72.97381 195.00958 75.8162 195.00958 78.170006 196.29" stroke="#2A2E59" stroke-width="0.67" fill="none" />
            <path d="M70 198.73C 70 198.73 73.1 196.95999 78.43 200.73" stroke="#2A2E59" stroke-width="0.67" fill="none" />
            <path d="M46.65 193.63C 46.65 193.63 49.09 191.41 54.65 193.85" stroke="#2A2E59" stroke-width="0.67" fill="none" />
            <path d="M48.42 195.85C 50.700943 194.83467 53.35747 195.17398 55.309998 196.73001" stroke="#2A2E59" stroke-width="0.67" fill="none" />
            <path d="M56.64 199.4L55.31 244.68" stroke="#2A2E59" stroke-width="0.67" fill="none" />
            <path d="M75 161.44C 75 161.44 80 164.44 82.1 159.66" stroke="#2A2E59" stroke-width="0.67" fill="none" />
            <path d="M80 162C 80 162 82.37 180.35 81.77 192.49" stroke="#2A2E59" stroke-width="0.67" fill="none" />
            <path d="M64.74 67C 64.74 67 66.29 71 71.509995 70.33" stroke="#E66657" stroke-width="0.67" fill="none" />
            <path d="M71.44 42.33C 71.44 42.33 74 45.8 74.12 47.86C 74.240005 49.920002 71 52 70.49 53.23C 69.979996 54.46 71.1 56.079998 70.63 56.87C 70.28385 57.63144 70.07077 58.446568 70 59.28L70 59.28L70.16 61.07C 70.22585 61.7173 69.79562 62.311016 69.16 62.45L69.16 62.45L68.78001 62.52C 68.234314 62.632378 67.68656 62.33743 67.48 61.82C 66.91 60.4 65.740005 57.73 64.82 57.5C 63.55 57.18 62.29 59.4 61.82 60.5C 61.56 61.12 60.89 62.81 60.35 64.16C 59.881058 65.34099 58.77744 66.14927 57.51 66.240005C 56.31072 66.379616 55.099277 66.379616 53.899998 66.240005C 52.789997 65.93001 47.129997 55.450005 46.969997 50.400005C 46.809998 45.350006 50.289997 40.280006 53.969997 38.700005C 57.649998 37.120003 64.64 35.69 71.44 42.33z" stroke="none" fill="#7E3636" fill-rule="nonzero" />
            <path d="M45.83 86.26C 45.83 87.68 51.83 109.14 50.83 112.93C 49.83 116.72 47.27 143.23 47.27 143.23" stroke="#6060E7" stroke-width="0.67" fill="none" />
            <path d="M62.34 35.44C 62.34 35.44 65.81 35.579998 67.02 33.84C 68.229996 32.100002 72.1 31.7 74.899994 34.51C 77.69999 37.319996 77.579994 42.51 75.16999 44.399998C 75.16999 44.399998 77.97999 43.859997 78.37999 45.87C 78.77999 47.88 75.29999 50.949997 71.15999 51.87C 71.15999 51.87 64.47999 50 62.46999 51.21C 60.45999 52.42 47 51.08 47 51.08C 47 51.08 44 48.41 44.83 46C 45.660004 43.59 46.43 46.14 46.43 46.14C 46.43 46.14 45.760002 42.79 50.170002 37.98C 54.58 33.17 60.73 35.84 62.34 35.44z" stroke="none" fill="#7E3636" fill-rule="nonzero" />
            <path d="M128 107.09L137.49 107.49C 137.49 107.49 137.23001 108.43 135.76001 108.7C 134.29001 108.96999 128.76001 109.63 128.76001 109.63L128.76001 109.63L128 107.09z" stroke="none" fill="#EB7754" fill-rule="nonzero" />
            <path d="M129.18 109.1C 130.45697 108.86172 131.75127 108.727936 133.04999 108.7C 133.71999 108.829994 134.38998 112.7 134.38998 112.7L134.38998 112.7L131.84999 115.369995C 131.84999 115.369995 130.90999 114.96999 131.84999 113.49999L131.84999 113.49999L132.37999 112.55999L128.51 111.08999L129.18 109.1z" stroke="none" fill="#FF8D68" fill-rule="nonzero" />
            <path d="M120 111.37L124 110.840004C 124 110.840004 127.34 107.490005 128 107.090004C 128.66 106.69 132 111.91 132.41 112.57001C 132.41 113.11001 130.41 114.850006 128.41 115.11001C 126.41 115.37001 125.740005 114.850006 125.740005 114.850006L125.740005 114.850006L121.33 116.58001L120 111.37z" stroke="none" fill="#FF8D68" fill-rule="nonzero" />
            <path d="M78.24 80.05C 78.24 80.05 69.29 80 69.56 90.92C 69.829994 101.84 88.56 119.79 93.619995 121.92C 98.67999 124.049995 120.34999 118.18 122.21999 117.11C 124.09 116.04 123.55999 111.49 120.619995 110.42L120.619995 110.42L98.42999 109.36C 98.42999 109.36 84.52 80.94 78.24 80.05z" stroke="none" fill="#FFFFFF" fill-rule="nonzero" />
            <path d="M98.79 111.15C 100.389084 112.94806 101.12002 115.35649 100.79 117.740005" stroke="#A6D0F4" stroke-width="0.53" fill="none" />
            <path d="M100.21 110.61C 102.89449 111.571976 104.77307 114.009056 105.02 116.85" stroke="#A6D0F4" stroke-width="0.53" fill="none" />
            <path d="M77.13 58.01L67.86 58.01" stroke="#505E83" stroke-width="0.52" fill="none" />
            <path d="M69 59.11C 69 59.11 68.37 56.38 66.06 57.64C 63.749992 58.899998 66.479996 65.42 68.369995 65C 70.259995 64.58 69.38 60.16 69 59.11z" stroke="none" fill="#FF7759" fill-rule="nonzero" />
            <path d="M49.64 46.27C 49.64 46.27 56.05 44.8 60.64 49.61" stroke="#663136" stroke-width="0.53" fill="none" />
            <path d="M50.48 45.29C 52.507996 43.429897 55.371136 42.786453 58 43.6" stroke="#663136" stroke-width="0.53" fill="none" />
            <path d="M49.86 47.52C 51.26684 47.778633 52.480495 48.661293 53.16 49.920002" stroke="#663136" stroke-width="0.53" fill="none" />
            <path d="M69.29 34.77C 69.29 34.77 75.7 36.77 74.23 42.66" stroke="#663136" stroke-width="0.53" fill="none" />
		</g>
	</g>
</g>
</svg>